<svg id="Camada_1" data-name="Camada 1" xmlns="http://www.w3.org/2000/svg" viewBox="0 0 2513.57 596.85"><defs><style>.cls-1{fill:#e2e2e2;}.cls-2{fill:#fff;}</style></defs><title>logotipo RGB branco</title><path class="cls-1" d="M189.49,183.68h44.82s36.93,79.2,178.26,136.53c0,0,279.42.27,326.53,110.35,0,0,19.06,27.52,5.61,120.4L703.2,593.41,286,596.85l-63.92-12.61L189.5,533.62Z"/><path class="cls-2" d="M680.94,0H258.05a69.25,69.25,0,0,0-69.17,69.17v69h42.25v-69a27,27,0,0,1,26.92-26.93H680.94a27,27,0,0,1,26.93,26.93v69h42.24v-69A69.25,69.25,0,0,0,680.94,0Zm26.93,460.41V527A27,27,0,0,1,680.94,554H258.05A27,27,0,0,1,231.13,527V460.41H188.88V527a69.25,69.25,0,0,0,69.17,69.17H680.94A69.25,69.25,0,0,0,750.11,527V460.41Z"/><path class="cls-2" d="M68.57,176.81h72.64v-41H68.57A68.65,68.65,0,0,0,0,204.37v225a68.65,68.65,0,0,0,68.57,68.49h72.64v-41H68.57A27.55,27.55,0,0,1,41,429.33v-225A27.55,27.55,0,0,1,68.57,176.81Z"/><path class="cls-2" d="M289.14,243.76q35.82,0,58.47,25.14t22.64,65q0,39.8-22.64,64.94T289.14,424c-24.56,0-44.59-8.26-58.56-24.79v20.94H189.45V175.66l41.13.15-.14,89.91C244.63,251.52,266.84,243.76,289.14,243.76ZM280,383.41q19.94,0,32.78-14t12.84-35.61q0-21.66-12.84-35.62t-32.78-14q-20.28,0-33.12,14T234.06,333.8q0,21.65,12.84,35.61T280,383.41Z"/><path class="cls-2" d="M482.78,244.1q45.29,0,68.77,28.46t17.74,76.65H440.57a38.32,38.32,0,0,0,15.35,26.2q13,9.78,32.94,9.78,29.07,0,46.64-16.42l25,26.54q-27.72,29.34-73.33,29.33-42.26,0-67.25-24.44t-25-66q0-40.14,24.33-65.12T482.78,244.1Zm1.35,38.07q-17.91,0-29.23,9.6t-13.68,26.71h85.83q-1.35-16.75-12.84-26.54t-30.08-9.77Z"/><path class="cls-2" d="M681.49,244.1q45.28,0,68.77,28.46T768,349.21H639.25a38.34,38.34,0,0,0,15.37,26.2q13,9.78,33,9.78,29.07,0,46.64-16.42l25,26.54q-27.72,29.34-73.34,29.33-42.24,0-67.25-24.44t-25-66q0-40.14,24.34-65.12T681.49,244.1Zm1.35,38.07q-17.91,0-29.23,9.6t-13.69,26.71h85.84q-1.35-16.75-12.84-26.54t-30.08-9.77Z"/><path class="cls-2" d="M892,244.1q26.37,0,42.58,15.72l-19.6,36q-12.84-9.07-27-9.07-18.59,0-29.57,12.92c-7.33,8.61-16.8,20.19-16.8,35.78v84.6l-39.13.08V247.6h39.07l.08,22.64A62.69,62.69,0,0,1,892,244.1Z"/><path class="cls-2" d="M1162.71,247.61h39l-.09,172.52h-38.95V398.94c-14.2,16.53-35.48,25.06-59.81,25.06q-35.82,0-58.46-25.15t-22.65-64.94q0-39.81,22.65-65t58.46-25.14c24.55,0,45.94,8.68,59.91,25ZM1112,383.41q20.28,0,33.12-14T1158,333.8q0-21.66-12.84-35.62t-33.12-14q-19.93,0-32.78,14T1066.4,333.8q0,21.65,12.84,35.61T1112,383.41Z"/><path class="cls-2" d="M1344.19,244.1q32.1,0,51,21.48t18.92,58.14v96.37h-44.94V326.51q0-19.9-9.63-30.9t-26.53-11c-12.17,0-27.85,3.67-35.29,12s-11.15,19.21-11.15,32.48l.18,91h-39.18V247.6h39.17v20.71C1300.45,252.71,1321.43,244.1,1344.19,244.1Z"/><path class="cls-2" d="M1582.44,175.66l39,.06V420.15h-39V399.83c-14,16.53-30.15,24.14-54.7,24.14q-35.82,0-58.46-25.15t-22.71-65q0-39.81,22.65-65t58.46-25.14q33.45,0,54.75,21.3Zm-45.62,207.75q20.27,0,33.11-14t12.85-35.61q0-21.66-12.85-35.62t-33.11-14q-20,0-32.79,14t-12.84,35.62q0,21.65,12.84,35.61T1536.82,383.41Z"/><path class="cls-2" d="M2265.28,175.58h39V420h-39v-20.3c-14,16.53-30.15,24.14-54.7,24.14q-35.84,0-58.47-25.14t-22.64-65q0-39.81,22.64-64.95t58.47-25.14q33.45,0,54.74,21.3Zm-45.62,207.77q20.28,0,33.12-14t12.84-35.62q0-21.64-12.84-35.61t-33.12-14q-20,0-32.78,14T2174,333.73q0,21.66,12.84,35.62t32.78,14Z"/><path class="cls-2" d="M1835.89,423.94q-41.23,0-65.9-24.45t-24.67-65.64q0-40.52,24.84-65.3t65.06-24.79q37.17,0,64.2,26.88l-26,29q-14.87-15.37-36.49-15.37-21,0-34,13.79t-13,35.8q0,22,13,35.79t34,13.79q23,0,38.52-16.76L1901.81,396Q1873.75,424,1835.89,423.94Z"/><path class="cls-2" d="M2073.12,398.79q-24.66,25.15-65.56,25.15T1942,398.79q-24.66-25.14-24.67-64.94t24.67-65q24.68-25.14,65.56-25.14t65.56,25.14q24.68,25.14,24.67,65T2073.12,398.79Zm-98.5-29.5q12.66,14.11,33,14.12t33-14.14q12.67-14.14,12.68-35.44t-12.74-35.42q-12.66-14.13-33-14.14t-32.89,14.14q-12.67,14.14-12.68,35.45T1974.62,369.29Z"/><path class="cls-2" d="M2425.93,244.1q45.29,0,68.77,28.46t17.74,76.65H2383.69a38.34,38.34,0,0,0,15.37,26.19q13,9.78,33,9.78,29.07,0,46.64-16.42l25,26.54q-27.72,29.34-73.34,29.33-42.24,0-67.25-24.44t-25-66q0-40.14,24.34-65.12T2425.93,244.1Zm1.35,38.07q-17.91,0-29.23,9.6t-13.69,26.71h85.84q-1.35-16.75-12.84-26.54t-30.08-9.77Z"/></svg>